<svg width="353" height="353" viewBox="0 0 353 353" fill="none" xmlns="http://www.w3.org/2000/svg">
<path d="M72.5626 269.4L146.631 311.636L206.641 345.852L230.515 305.133L136.66 251.626L340.719 133.805V95.3462L136.66 213.168L161.277 170.684L194.781 112.872L230.515 51.2522L206.641 38.123L147.467 140.214L113.932 198.026L94.3309 231.84L72.5626 269.4Z" fill="white" stroke="#6366F1" stroke-width="6.19298" stroke-linecap="round" stroke-linejoin="round"/>
<path d="M10.6408 238.431L72.5704 269.396L94.3387 231.836L113.939 198.022L147.474 140.21L206.648 38.1192L144.719 7.1543L10.6408 238.431Z" fill="white" stroke="#6366F1" stroke-width="6.19298" stroke-linecap="round" stroke-linejoin="round"/>
<path d="M10.6408 238.438L144.719 314.89L206.648 345.855L146.638 311.639L72.5704 269.402L10.6408 238.438Z" fill="white" stroke="#6366F1" stroke-width="6.19298" stroke-linecap="round" stroke-linejoin="round"/>
<path d="M136.66 213.165L340.719 95.3438L278.789 64.3789L194.781 112.87L161.277 170.681L136.66 213.165Z" fill="white" stroke="#6366F1" stroke-width="6.19298" stroke-linecap="round" stroke-linejoin="round"/>
</svg>
