<svg width="443" height="415" viewBox="0 0 443 415" fill="none" xmlns="http://www.w3.org/2000/svg">
<path d="M190.012 200.807L163.477 214.052L193.202 231.196L211.985 221.805C204.454 215.559 197.145 208.559 190.012 200.807Z" fill="#FF5E5E" fill-opacity="0.98" stroke="white" stroke-width="8.86" stroke-linecap="round" stroke-linejoin="round"/>
<path d="M192.608 50.1493L162.883 65.0339L104.008 94.4491L74.2832 77.2612L162.883 32.9609L192.608 50.1493Z" fill="#FF5E5E" fill-opacity="0.98" stroke="white" stroke-width="8.86" stroke-linecap="round" stroke-linejoin="round"/>
<path d="M192.608 50.1475V58.8744L162.883 73.7149L159.383 75.4869L157.744 76.2843C147.466 81.6446 139.448 90.5932 133.733 103.086C138.961 120.54 146.093 137.197 155.13 153.1L134.442 163.422L118.848 171.219V223.493L104.008 230.891V94.4473L162.883 65.0321L192.608 50.1475Z" fill="#FF5E5E" fill-opacity="0.98" stroke="white" stroke-width="8.86" stroke-linecap="round" stroke-linejoin="round"/>
<path d="M257.168 249.317L208.04 273.903V274.967L193.199 282.365V231.198L211.982 221.807C212.736 222.471 213.533 223.136 214.33 223.756C221.906 229.869 229.702 235.23 237.765 239.881C244.41 243.691 250.878 246.88 257.168 249.317Z" fill="#FF5E5E" fill-opacity="0.98" stroke="white" stroke-width="8.86" stroke-linecap="round" stroke-linejoin="round"/>
<path d="M208.04 274.964V290.956L193.199 282.362L208.04 274.964Z" fill="#FF5E5E" fill-opacity="0.98" stroke="white" stroke-width="8.86" stroke-linecap="round" stroke-linejoin="round"/>
<path d="M237.767 291.05V376.327C237.767 395.11 231.964 407.78 220.313 414.425C208.662 421.07 194.663 419.653 178.317 410.217L97.6906 363.657L8.86914 210.069L32.6582 195.671L74.3002 233.77V77.2578L104.026 94.4458V230.89L118.866 239.44V171.218L148.591 188.406V256.628L150.718 257.868L163.476 265.222V214.056L193.201 231.2V282.366L208.042 290.961V273.906L209.017 274.481L237.767 291.05Z" fill="#FF5E5E" fill-opacity="0.98" stroke="white" stroke-width="8.86" stroke-linecap="round" stroke-linejoin="round"/>
<path d="M326.36 246.744L237.76 291.044L209.01 274.476L208.035 273.9L257.164 249.313H257.208C257.607 249.49 257.961 249.623 258.316 249.801C273.112 255.382 287.022 257.287 300.135 255.471C307.179 254.496 313.469 252.414 319.051 249.269L325.297 246.168L326.316 246.744H326.36Z" fill="#FF5E5E" fill-opacity="0.98" stroke="white" stroke-width="8.86" stroke-linecap="round" stroke-linejoin="round"/>
<path d="M163.471 249.188V265.224L150.712 257.87L148.586 256.63L149.693 256.098L163.471 249.188Z" fill="#FF5E5E" fill-opacity="0.98" stroke="white" stroke-width="8.86" stroke-linecap="round" stroke-linejoin="round"/>
<path d="M190.006 200.807L163.471 214.053V249.183L149.693 256.094L148.586 256.625V188.403L157.092 184.15L162.895 181.271L170.78 177.328C172.242 179.366 173.793 181.404 175.343 183.397C177.602 186.277 179.862 189.112 182.165 191.814C184.735 194.915 187.348 197.928 190.006 200.807Z" fill="#FF5E5E" fill-opacity="0.98" stroke="white" stroke-width="8.86" stroke-linecap="round" stroke-linejoin="round"/>
<path d="M170.779 177.334L162.894 181.276L157.09 184.156L148.585 188.409L118.859 171.22L134.453 163.423L155.141 153.102C157.578 157.443 160.147 161.696 162.894 165.904C165.419 169.758 168.032 173.568 170.779 177.334Z" fill="#FF5E5E" fill-opacity="0.98" stroke="white" stroke-width="8.86" stroke-linecap="round" stroke-linejoin="round"/>
<path d="M118.848 223.491V239.439L104.008 230.889L118.848 223.491Z" fill="#FF5E5E" fill-opacity="0.98" stroke="white" stroke-width="8.86" stroke-linecap="round" stroke-linejoin="round"/>
<path d="M326.367 246.744V332.022C326.367 350.805 320.563 363.475 308.913 370.12L305.723 371.714L305.236 371.936L220.312 414.42C231.963 407.775 237.767 395.105 237.767 376.322V291.044L326.367 246.744Z" fill="#FF5E5E" fill-opacity="0.98" stroke="white" stroke-width="8.86" stroke-linecap="round" stroke-linejoin="round"/>
<path d="M74.2884 174.85V233.769L32.6465 195.671L74.2884 174.85Z" fill="#FF5E5E" fill-opacity="0.98" stroke="white" stroke-width="8.86" stroke-linecap="round" stroke-linejoin="round"/>
<path d="M333.217 199.299C327.635 185.92 320.813 173.073 312.839 160.714C308.897 154.645 304.688 148.708 300.169 142.905C290.955 130.988 281.342 120.445 271.33 111.231C260.61 101.396 249.402 93.112 237.751 86.3784C235.403 85.0494 233.099 83.7647 230.84 82.6129C217.461 75.7464 204.703 71.7151 192.609 70.5633C186.717 69.9431 180.958 70.0317 175.332 70.8291C170.902 71.4493 166.738 72.4682 162.884 73.9744C161.688 74.4174 160.536 74.949 159.384 75.4806L157.745 76.278C147.467 81.6383 139.449 90.5869 133.734 103.079C138.962 120.534 146.094 137.19 155.131 153.094C157.568 157.436 160.137 161.688 162.884 165.897C165.409 169.751 168.023 173.561 170.769 177.326C172.231 179.364 173.782 181.402 175.332 183.395C177.591 186.275 179.851 189.11 182.154 191.812C184.724 194.913 187.337 197.926 189.995 200.805C197.128 208.558 204.437 215.557 211.968 221.803C212.721 222.468 213.519 223.132 214.316 223.753C221.891 229.866 229.688 235.226 237.751 239.878C244.396 243.688 250.864 246.877 257.154 249.314H257.198C257.597 249.491 257.952 249.624 258.306 249.801C273.102 255.383 287.012 257.288 300.125 255.471C307.169 254.497 313.459 252.415 319.041 249.269C320.946 248.206 322.762 247.01 324.49 245.681C331.622 240.321 337.337 232.834 341.767 223.221C339.331 215.07 336.451 207.096 333.173 199.299H333.217ZM274.608 190.483C273.545 199.21 270.09 205.235 264.154 208.646C260.521 210.684 256.49 211.482 252.06 210.95C248.56 210.596 244.839 209.399 240.852 207.362H240.807C239.789 206.919 238.77 206.387 237.751 205.767C237.574 205.634 237.352 205.545 237.175 205.412C229.688 200.982 223.043 194.869 217.284 187.117C215.202 184.326 213.253 181.358 211.392 178.168C209.886 175.599 208.557 173.073 207.45 170.548C205.899 167.314 204.614 164.081 203.64 160.847C201.602 154.423 200.583 148 200.583 141.665C200.583 137.013 201.115 132.982 202.222 129.527C203.95 124.078 206.962 120.135 211.392 117.61C218.569 113.534 227.34 114.509 237.751 120.489C239.966 121.774 242.092 123.192 244.174 124.786C251.838 130.545 258.483 138.342 264.154 148.088C270.356 158.809 273.9 169.352 274.697 179.763C274.83 180.782 274.874 181.845 274.83 182.908C274.918 183.484 274.918 184.016 274.918 184.591C274.918 186.674 274.83 188.623 274.608 190.483Z" fill="#FF5E5E" fill-opacity="0.98" stroke="white" stroke-width="8.86" stroke-linecap="round" stroke-linejoin="round"/>
<path d="M430.426 178.925L366.634 210.821H366.59L341.826 223.225C339.39 215.074 336.51 207.1 333.232 199.303C327.65 185.925 320.828 173.078 312.854 160.718C308.911 154.649 304.703 148.713 300.184 142.909C290.97 130.993 281.357 120.449 271.345 111.235C260.624 101.4 249.416 93.1163 237.765 86.3827C235.418 85.0537 233.114 83.769 230.855 82.6172C217.476 75.7507 204.718 71.7194 192.624 70.5676C186.732 69.9474 180.973 70.036 175.347 70.8334C170.917 71.4536 166.753 72.4725 162.898 73.9787V73.7129L192.624 58.8724L244.676 32.9124L249.195 30.6531C253.713 28.6153 258.631 27.2863 263.947 26.5332C283.04 23.8752 303.817 29.0583 326.365 42.0825C348.914 55.1067 369.735 73.9344 388.784 98.6095C407.877 123.24 421.743 150.042 430.426 178.925Z" fill="#FF5E5E" fill-opacity="0.98" stroke="white" stroke-width="8.86" stroke-linecap="round" stroke-linejoin="round"/>
<path d="M274.925 184.6C274.925 186.682 274.837 188.631 274.615 190.492C273.552 199.219 270.097 205.244 264.16 208.655C260.528 210.692 256.496 211.49 252.066 210.958C248.567 210.604 244.846 209.408 240.859 207.37H240.814C239.795 206.927 238.776 206.395 237.758 205.775C237.58 205.642 237.359 205.554 237.182 205.421C229.695 200.991 223.05 194.877 217.291 187.125C215.209 184.334 213.26 181.366 211.399 178.176C209.893 175.607 208.564 173.082 207.456 170.557C205.906 167.323 204.621 164.089 203.647 160.855C201.609 154.431 200.59 148.008 200.59 141.673C200.59 137.022 201.121 132.99 202.229 129.535C203.957 124.086 206.969 120.143 211.399 117.618C218.576 113.543 227.347 114.517 237.758 120.498C239.973 121.782 242.099 123.2 244.181 124.795L223.36 135.25L222.563 135.648H222.518L221.987 135.914C217.645 138.395 215.475 143.179 215.475 150.267C215.475 151.773 215.563 153.28 215.785 154.83C216.494 160.501 218.576 166.26 221.987 172.151C224.025 175.695 226.284 178.752 228.765 181.41C231.334 184.201 234.125 186.549 237.182 188.365C237.359 188.498 237.58 188.587 237.758 188.72C243.251 191.909 248.035 192.662 252.066 191.068C252.598 190.89 253.085 190.625 253.573 190.359L271.913 181.189L274.704 179.771C274.837 180.79 274.881 181.853 274.837 182.916C274.925 183.492 274.925 184.024 274.925 184.6Z" fill="#FF5E5E" fill-opacity="0.98" stroke="white" stroke-width="8.86" stroke-linecap="round" stroke-linejoin="round"/>
<path d="M274.699 179.768L271.908 181.186L253.568 190.356C257.909 187.919 260.036 183.135 260.036 176.003C260.036 175.427 260.036 174.895 259.992 174.319C259.681 167.763 257.555 161.029 253.568 154.119C249.227 146.676 243.955 141.139 237.753 137.55C232.171 134.316 227.387 133.563 223.355 135.247L244.176 124.792C251.84 130.551 258.485 138.348 264.156 148.094C270.358 158.814 273.902 169.358 274.699 179.768Z" fill="#FF5E5E" fill-opacity="0.98" stroke="white" stroke-width="8.86" stroke-linecap="round" stroke-linejoin="round"/>
<path d="M260.042 175.999C260.042 183.131 257.916 187.915 253.575 190.352C253.087 190.618 252.6 190.883 252.068 191.061C248.037 192.655 243.253 191.902 237.759 188.713C237.582 188.58 237.361 188.491 237.184 188.358C234.127 186.542 231.336 184.194 228.767 181.403C226.286 178.745 224.026 175.688 221.989 172.144C218.578 166.253 216.495 160.494 215.787 154.823C215.565 153.273 215.477 151.766 215.477 150.26C215.477 143.172 217.647 138.388 221.989 135.907L222.52 135.641H222.565L223.362 135.243C227.393 133.559 232.178 134.312 237.759 137.546C243.961 141.134 249.233 146.672 253.575 154.114C257.562 161.025 259.688 167.759 259.998 174.315C260.042 174.891 260.042 175.423 260.042 175.999Z" fill="#FF5E5E" fill-opacity="0.98" stroke="white" stroke-width="8.86" stroke-linecap="round" stroke-linejoin="round"/>
<path d="M430.42 178.923C424.173 192.434 415.313 201.782 403.751 206.965L325.34 246.17L319.094 249.272C320.999 248.209 322.815 247.012 324.543 245.683C331.675 240.323 337.39 232.836 341.82 223.223L366.583 210.819H366.628L430.42 178.923Z" fill="#FF5E5E" fill-opacity="0.98" stroke="white" stroke-width="8.86" stroke-linecap="round" stroke-linejoin="round"/>
</svg>
