<svg width="249" height="250" viewBox="0 0 249 250" fill="none" xmlns="http://www.w3.org/2000/svg">
<g filter="url(#filter0_bd_839_650)">
<rect x="11" y="11" width="225" height="225" rx="112.5" fill="#F0B000"/>
<path d="M123.501 82.4201C115.371 82.3963 107.417 84.7854 100.645 89.2849C93.874 93.7844 88.59 100.192 85.4624 107.696C82.3347 115.2 81.504 123.464 83.0756 131.441C84.6471 139.417 88.5501 146.748 94.2904 152.505C100.031 158.263 107.35 162.187 115.322 163.782C123.294 165.377 131.56 164.57 139.074 161.465C146.587 158.359 153.01 153.093 157.529 146.336C162.048 139.577 164.461 131.63 164.461 123.5C164.471 118.113 163.42 112.776 161.367 107.795C159.314 102.814 156.299 98.2863 152.495 94.4711C148.691 90.656 144.172 87.628 139.197 85.5602C134.222 83.4924 128.888 82.4253 123.501 82.4201ZM159.501 123.5C159.501 130.62 157.389 137.58 153.434 143.501C149.478 149.421 143.856 154.035 137.277 156.76C130.699 159.485 123.461 160.197 116.478 158.808C109.494 157.419 103.08 153.991 98.0449 148.956C93.0103 143.921 89.5816 137.507 88.1926 130.523C86.8035 123.54 87.5164 116.302 90.2412 109.723C92.9659 103.145 97.5801 97.5229 103.5 93.5672C109.42 89.6115 116.381 87.5001 123.501 87.5001C133.049 87.5001 142.206 91.2929 148.957 98.0442C155.708 104.796 159.501 113.952 159.501 123.5Z" fill="white"/>
<path d="M110.7 119.699C111.941 119.73 113.162 119.388 114.207 118.718C115.251 118.047 116.07 117.078 116.558 115.936C117.046 114.795 117.179 113.533 116.942 112.315C116.704 111.096 116.107 109.977 115.226 109.102C114.345 108.227 113.222 107.637 112.002 107.408C110.782 107.178 109.521 107.32 108.383 107.815C107.245 108.311 106.281 109.136 105.618 110.185C104.954 111.234 104.62 112.458 104.66 113.699C104.72 115.278 105.376 116.775 106.497 117.889C107.618 119.002 109.12 119.649 110.7 119.699ZM137.26 119.699C138.113 119.768 138.971 119.659 139.781 119.379C140.59 119.1 141.333 118.656 141.962 118.075C142.591 117.495 143.093 116.79 143.436 116.006C143.78 115.222 143.957 114.375 143.957 113.519C143.957 112.663 143.78 111.816 143.436 111.032C143.093 110.247 142.591 109.543 141.962 108.962C141.333 108.382 140.59 107.938 139.781 107.658C138.971 107.379 138.113 107.27 137.26 107.339C136.442 107.349 135.635 107.523 134.886 107.85C134.136 108.177 133.46 108.651 132.897 109.244C132.334 109.837 131.896 110.536 131.607 111.302C131.319 112.067 131.187 112.882 131.219 113.699C131.23 115.294 131.871 116.82 133.003 117.944C134.134 119.068 135.665 119.699 137.26 119.699ZM124.259 140.899C120.081 140.815 115.982 139.737 112.302 137.755C108.623 135.773 105.468 132.943 103.1 129.499C104.524 134.043 107.334 138.028 111.135 140.897C114.936 143.766 119.539 145.375 124.3 145.499C129.094 145.489 133.757 143.924 137.586 141.039C141.416 138.154 144.207 134.105 145.54 129.499C143.238 133.036 140.081 135.935 136.362 137.928C132.642 139.92 128.479 140.942 124.259 140.899Z" fill="white"/>
<rect x="37" y="37" width="173" height="173" rx="86.5" stroke="white" stroke-width="2"/>
</g>
<defs>
<filter id="filter0_bd_839_650" x="0" y="0.5" width="249" height="249" filterUnits="userSpaceOnUse" color-interpolation-filters="sRGB">
<feFlood flood-opacity="0" result="BackgroundImageFix"/>
<feGaussianBlur in="BackgroundImageFix" stdDeviation="4"/>
<feComposite in2="SourceAlpha" operator="in" result="effect1_backgroundBlur_839_650"/>
<feColorMatrix in="SourceAlpha" type="matrix" values="0 0 0 0 0 0 0 0 0 0 0 0 0 0 0 0 0 0 127 0" result="hardAlpha"/>
<feOffset dx="1" dy="1.5"/>
<feGaussianBlur stdDeviation="6"/>
<feComposite in2="hardAlpha" operator="out"/>
<feColorMatrix type="matrix" values="0 0 0 0 0 0 0 0 0 0 0 0 0 0 0 0 0 0 0.439216 0"/>
<feBlend mode="normal" in2="effect1_backgroundBlur_839_650" result="effect2_dropShadow_839_650"/>
<feBlend mode="normal" in="SourceGraphic" in2="effect2_dropShadow_839_650" result="shape"/>
</filter>
</defs>
</svg>
